<svg xmlns="http://www.w3.org/2000/svg" viewBox="0 0 157.47 44.78"><defs><style>.cls-1{isolation:isolate;}.cls-2{fill:#0086ff;}.cls-3{fill:#ff15e1;}.cls-4{mix-blend-mode:multiply;}</style></defs><title>logo_mao_uskn</title><g class="cls-1"><g id="Capa_1" data-name="Capa 1"><path d="M327.31,226.7h-5.53V213.8h5.1a6.48,6.48,0,0,1,6.5,6.46A6.33,6.33,0,0,1,327.31,226.7Zm-.22-2.4a3.94,3.94,0,0,0,3.71-4,4,4,0,0,0-3.92-4.06h-2.56v8.1Z" transform="translate(-235.52 -211.04)"/><path class="cls-2" d="M335.21,214.2a1.49,1.49,0,0,1,1.46-1.5,1.47,1.47,0,0,1,1.45,1.5,1.46,1.46,0,0,1-1.45,1.48A1.47,1.47,0,0,1,335.21,214.2Zm.2,2.56H338v9.93h-2.54Z" transform="translate(-235.52 -211.04)"/><path class="cls-2" d="M340.74,224a7.92,7.92,0,0,0,3.4.81c1.17,0,1.63-.44,1.63-1s-.57-.82-2.1-1.15c-2.14-.48-3.7-1.17-3.7-3.09s1.48-3,3.79-3a10,10,0,0,1,3.88.8l-.84,1.87a9.24,9.24,0,0,0-3.09-.64c-1,0-1.46.35-1.46.88s.6.81,2.2,1.13c2.3.48,3.64,1.28,3.64,3.09s-1.45,3.13-4,3.13a8.73,8.73,0,0,1-4.3-1Z" transform="translate(-235.52 -211.04)"/><path class="cls-2" d="M351.94,222.45a2.74,2.74,0,0,0,2.84,2.21,3.18,3.18,0,0,0,2.56-1.23l1.63,1.35a5.47,5.47,0,0,1-4.48,2,5.13,5.13,0,0,1,0-10.26c3.06,0,4.83,2.21,4.83,5.31,0,.2,0,.4,0,.57Zm0-1.63h4.92a2.19,2.19,0,0,0-2.4-2.21A2.59,2.59,0,0,0,352,220.83Z" transform="translate(-235.52 -211.04)"/><path class="cls-2" d="M370.57,221.15v5.54H368v-5.54c0-1.54-.75-2.29-2.16-2.29a3.25,3.25,0,0,0-2.2.79v7h-2.54v-9.93h2.54v.62a4.59,4.59,0,0,1,2.65-.8C369.23,216.58,370.57,217.93,370.57,221.15Zm-8.49-5.36c.05-1.79,1-2.84,2.16-2.84s2.18.77,2.91.77c.53,0,1-.46,1.17-1.15l1.17.16c-.07,1.74-1,2.82-2.1,2.82s-2.23-.77-2.91-.77-1,.46-1.23,1.13Z" transform="translate(-235.52 -211.04)"/><path class="cls-2" d="M383.13,221.72a5.44,5.44,0,1,1-5.43-5.14A5.28,5.28,0,0,1,383.13,221.72Zm-2.51,0a2.93,2.93,0,1,0-2.93,2.84A2.89,2.89,0,0,0,380.62,221.72Z" transform="translate(-235.52 -211.04)"/><path class="cls-3" d="M335.48,238.14a27.93,27.93,0,0,1-2.34,3.53l1.86,1.82-1.84,1.69-1.71-1.69a6.63,6.63,0,0,1-4.1,1.69c-3.55,0-5.83-1.67-5.83-4.49,0-1.73,1.14-3.22,3.24-4.14a4.08,4.08,0,0,1-1.36-3,4,4,0,0,1,4.34-4.19c2.63,0,4.4,1.69,4.4,3.86a4.74,4.74,0,0,1-3.33,4.23l2.65,2.52a17.77,17.77,0,0,0,1.82-2.54Zm-5.63,3.64-3.44-3.37c-1.25.5-1.84,1.27-1.84,2.17,0,1.14,1.05,2.15,2.91,2.15A3.61,3.61,0,0,0,329.84,241.78Zm-3.9-8.13a3.12,3.12,0,0,0,1.36,2.21c1-.31,2.3-1,2.3-2.23a1.86,1.86,0,0,0-1.86-2A1.93,1.93,0,0,0,325.95,233.65Z" transform="translate(-235.52 -211.04)"/><path d="M338.9,230.84a2.11,2.11,0,0,1,2.42,2.22c0,1.69-1.09,2.36-2.66,2.36h-1V237h-1.25v-6.17Zm-.37,3.55c1,0,1.47-.5,1.47-1.23a1.15,1.15,0,0,0-1.3-1.23h-1.09v2.46Z" transform="translate(-235.52 -211.04)"/><path d="M343.35,232.93a1.81,1.81,0,0,1,1.5-.75.93.93,0,0,1,.3.05v1.32a3.47,3.47,0,0,0-.59-.07,1.14,1.14,0,0,0-1.21,1.24V237h-1.23v-4.76h1.23Z" transform="translate(-235.52 -211.04)"/><path d="M350.81,234.63a2.61,2.61,0,1,1-2.6-2.46A2.53,2.53,0,0,1,350.81,234.63Zm-1.2,0a1.4,1.4,0,1,0-1.4,1.36A1.38,1.38,0,0,0,349.61,234.63Z" transform="translate(-235.52 -211.04)"/><path d="M356.49,230.41V237h-1.23v-.29a2.79,2.79,0,0,1-1.38.37,2.46,2.46,0,0,1,0-4.92,2.88,2.88,0,0,1,1.38.36v-2.12Zm-1.23,5.17v-1.91a1.8,1.8,0,0,0-1.17-.4,1.36,1.36,0,0,0-1.42,1.37A1.34,1.34,0,0,0,354.1,236,1.78,1.78,0,0,0,355.26,235.58Z" transform="translate(-235.52 -211.04)"/><path d="M362.08,232.26V237h-1.22v-.32a2.29,2.29,0,0,1-1.3.39c-1.39,0-2-.65-2-2.19v-2.64h1.22v2.64c0,.74.36,1.09,1,1.09a1.63,1.63,0,0,0,1.08-.38v-3.35Z" transform="translate(-235.52 -211.04)"/><path d="M367.39,236.13a2.29,2.29,0,0,1-1.84,1,2.46,2.46,0,1,1,0-4.91,2.3,2.3,0,0,1,1.86.95l-.79.73a1.29,1.29,0,0,0-1.07-.58,1.36,1.36,0,1,0,0,2.72,1.28,1.28,0,0,0,1.07-.59Z" transform="translate(-235.52 -211.04)"/><path d="M372.31,236.13a2.29,2.29,0,0,1-1.84,1,2.46,2.46,0,1,1,0-4.91,2.3,2.3,0,0,1,1.86.95l-.79.73a1.29,1.29,0,0,0-1.07-.58,1.36,1.36,0,1,0,0,2.72,1.28,1.28,0,0,0,1.07-.59Z" transform="translate(-235.52 -211.04)"/><path d="M373.08,231a.7.7,0,1,1,1.39,0,.7.7,0,1,1-1.39,0Zm.1,1.23h1.22V237h-1.22Z" transform="translate(-235.52 -211.04)"/><path d="M380.49,234.63a2.61,2.61,0,1,1-2.6-2.46A2.53,2.53,0,0,1,380.49,234.63Zm-1.2,0a1.4,1.4,0,1,0-1.4,1.36A1.38,1.38,0,0,0,379.29,234.63Zm-1-2.86h-.75l1.05-1.55,1.32.11Z" transform="translate(-235.52 -211.04)"/><path d="M385.89,234.36V237h-1.22v-2.65c0-.74-.36-1.09-1-1.09a1.56,1.56,0,0,0-1.05.38V237h-1.22v-4.76h1.22v.3a2.2,2.2,0,0,1,1.27-.39C385.25,232.17,385.89,232.82,385.89,234.36Z" transform="translate(-235.52 -211.04)"/><path d="M346,246.71v4.06a7.7,7.7,0,0,1-4.83,1.62,5.67,5.67,0,1,1,0-11.34,6.46,6.46,0,0,1,4.44,1.59l-1.42,1.57a4.52,4.52,0,0,0-3-1.06,3.61,3.61,0,0,0,0,7.23,4.62,4.62,0,0,0,2.58-.76v-1h-2.82v-1.89Z" transform="translate(-235.52 -211.04)"/><path class="cls-2" d="M350,244.91a3.25,3.25,0,0,1,2.69-1.35,1.67,1.67,0,0,1,.54.09V246a6.25,6.25,0,0,0-1.05-.13,2.05,2.05,0,0,0-2.17,2.24v4.13h-2.2v-8.55H350Z" transform="translate(-235.52 -211.04)"/><path class="cls-2" d="M362.9,243.71v8.55h-2.19v-.63a4.47,4.47,0,0,1-2.5.76,4.43,4.43,0,0,1,0-8.85,5,5,0,0,1,2.5.71v-.54Zm-2.19,2.55a3.27,3.27,0,0,0-2.11-.74,2.45,2.45,0,1,0,0,4.9,3.23,3.23,0,0,0,2.11-.72Zm-1.4-3.59H358l1.89-2.79,2.38.21Z" transform="translate(-235.52 -211.04)"/><path class="cls-2" d="M370,242.22a6.51,6.51,0,0,0-.9-.08c-1.29,0-1.46.55-1.46,1.45v.13h2.3v1.81h-2.3v7a2.48,2.48,0,0,1-2.69,2.69,5.34,5.34,0,0,1-1.17-.13v-1.75c1.35,0,1.67-.25,1.67-1.91v-5.94h-1.2v-1.81h1.2v-.55c0-2.14,1.21-2.88,2.66-2.88a5.62,5.62,0,0,1,1.89.3Z" transform="translate(-235.52 -211.04)"/><path class="cls-2" d="M370.93,241.51a1.28,1.28,0,0,1,1.26-1.29,1.27,1.27,0,0,1,1.24,1.29,1.25,1.25,0,0,1-1.24,1.28A1.27,1.27,0,0,1,370.93,241.51Zm.17,2.2h2.19v8.55H371.1Z" transform="translate(-235.52 -211.04)"/><path class="cls-2" d="M382.9,250.67a4.11,4.11,0,0,1-3.31,1.72,4.42,4.42,0,1,1,0-8.83,4.13,4.13,0,0,1,3.34,1.7l-1.42,1.31a2.32,2.32,0,0,0-1.92-1,2.45,2.45,0,1,0,0,4.9,2.3,2.3,0,0,0,1.92-1.06Z" transform="translate(-235.52 -211.04)"/><path class="cls-2" d="M393,243.71v8.55h-2.19v-.63a4.48,4.48,0,0,1-2.5.76,4.43,4.43,0,0,1,0-8.85,5,5,0,0,1,2.5.71v-.54Zm-2.19,2.55a3.27,3.27,0,0,0-2.11-.74,2.45,2.45,0,1,0,0,4.9,3.23,3.23,0,0,0,2.11-.72Z" transform="translate(-235.52 -211.04)"/><path class="cls-2" d="M289.88,226.75v19h-8.74v-19c0-5.28-2.64-7.86-7.42-7.86a9.38,9.38,0,0,0-6.79,2.7c.31.94.38,2.2.38,5.28V245.8h-8.74v-19c0-5.22-2.32-7.86-6.85-7.86a10.44,10.44,0,0,0-7.35,2.7v24.2h-8.8V211.67h8.8v2.14a15.13,15.13,0,0,1,8.86-2.76c5.28,0,9,1.32,11.31,4.34A15.68,15.68,0,0,1,275.24,211C285.29,211,289.88,215.69,289.88,226.75Z" transform="translate(-235.52 -211.04)"/><g class="cls-4"><path class="cls-3" d="M313.73,211.67V245.8H305v-2.26a16.41,16.41,0,0,1-9.3,2.76c-10,0-14.58-4.65-14.58-15.71V211.67h8.73v18.92c0,5.28,2.58,7.86,7.42,7.86a11.67,11.67,0,0,0,7.73-2.7V211.67Z" transform="translate(-235.52 -211.04)"/></g><path d="M243.11,251.46v2.79h-.32v-2.79a1.69,1.69,0,0,0-1.79-1.82,2.17,2.17,0,0,0-1.65.74,2.38,2.38,0,0,1,.23,1.09v2.79h-.32v-2.79a1.62,1.62,0,0,0-1.62-1.82,2.49,2.49,0,0,0-1.79.67v3.95h-.32v-4.84h.32V250a2.52,2.52,0,0,1,1.81-.67,1.79,1.79,0,0,1,1.58.81,2.19,2.19,0,0,1,1.78-.81A2,2,0,0,1,243.11,251.46Z" transform="translate(-235.52 -211.04)"/><path d="M249,249.41v4.84h-.31v-.58a3.05,3.05,0,0,1-1.91.62,2.49,2.49,0,1,1,0-5,3,3,0,0,1,1.91.65v-.56Zm-.31.93a2.66,2.66,0,0,0-1.89-.7,2.17,2.17,0,1,0,0,4.34,2.65,2.65,0,0,0,1.89-.68Z" transform="translate(-235.52 -211.04)"/><path d="M254.8,249.41v4.84h-.32v-.64a2.91,2.91,0,0,1-2,.67,2,2,0,0,1-2.09-2.14v-2.74h.31v2.74a1.7,1.7,0,0,0,1.8,1.82,2.87,2.87,0,0,0,2-.67v-3.89Z" transform="translate(-235.52 -211.04)"/><path d="M256.69,250.57a1.75,1.75,0,0,1,1.64-1.25,1.88,1.88,0,0,1,.84.21l-.08.31a1.78,1.78,0,0,0-.78-.18c-1,0-1.62.9-1.62,2v2.54h-.32v-4.84h.32Z" transform="translate(-235.52 -211.04)"/><path d="M260.69,248.12a.27.27,0,1,1-.27-.26A.26.26,0,0,1,260.69,248.12Zm-.43,1.29h.33v4.84h-.33Z" transform="translate(-235.52 -211.04)"/><path d="M266.23,253.46a2.31,2.31,0,0,1-1.75.83,2.49,2.49,0,1,1,0-5,2.3,2.3,0,0,1,1.76.82l-.23.21a2,2,0,0,0-1.53-.71,2.17,2.17,0,1,0,0,4.34,2,2,0,0,0,1.53-.74Z" transform="translate(-235.52 -211.04)"/><path d="M267.9,248.12a.27.27,0,1,1-.27-.26A.26.26,0,0,1,267.9,248.12Zm-.43,1.29h.33v4.84h-.33Z" transform="translate(-235.52 -211.04)"/><path d="M274.29,251.81a2.63,2.63,0,1,1-2.62-2.49A2.56,2.56,0,0,1,274.29,251.81Zm-.32,0a2.31,2.31,0,1,0-2.3,2.17A2.24,2.24,0,0,0,274,251.81Z" transform="translate(-235.52 -211.04)"/><path d="M279.93,249.37v4.88h-1.25v-.32a2.34,2.34,0,0,1-1.33.4c-1.43,0-2.08-.67-2.08-2.25v-2.71h1.25v2.71c0,.75.37,1.12,1.06,1.12a1.67,1.67,0,0,0,1.11-.39v-3.44Z" transform="translate(-235.52 -211.04)"/><path d="M281.26,252.93a3.89,3.89,0,0,0,1.67.4c.58,0,.8-.22.8-.47s-.28-.4-1-.57c-1.05-.23-1.82-.58-1.82-1.52s.73-1.49,1.86-1.49a4.9,4.9,0,0,1,1.91.4l-.41.92a4.55,4.55,0,0,0-1.52-.31c-.48,0-.72.17-.72.43s.3.4,1.08.56c1.13.23,1.79.63,1.79,1.52s-.71,1.54-2,1.54a4.29,4.29,0,0,1-2.11-.47Z" transform="translate(-235.52 -211.04)"/><path d="M290.64,249.37v4.88h-1.25v-.36a2.56,2.56,0,0,1-1.43.43,2.53,2.53,0,0,1,0-5.05,2.87,2.87,0,0,1,1.43.4v-.31Zm-1.25,1.46a1.87,1.87,0,0,0-1.2-.42,1.4,1.4,0,1,0,0,2.79,1.84,1.84,0,0,0,1.2-.41Z" transform="translate(-235.52 -211.04)"/><path d="M296.69,249.37v6.45h-1.25V254a2.89,2.89,0,0,1-1.43.37,2.52,2.52,0,0,1,0-5,2.92,2.92,0,0,1,1.43.38v-.29Zm-2.45,3.83a1.84,1.84,0,0,0,1.2-.41v-2a1.87,1.87,0,0,0-1.2-.42,1.39,1.39,0,0,0-1.46,1.4A1.37,1.37,0,0,0,294.23,253.2Z" transform="translate(-235.52 -211.04)"/><path d="M302.43,249.37v4.88h-1.25v-.32a2.34,2.34,0,0,1-1.33.4c-1.43,0-2.08-.67-2.08-2.25v-2.71H299v2.71c0,.75.37,1.12,1.06,1.12a1.67,1.67,0,0,0,1.11-.39v-3.44Z" transform="translate(-235.52 -211.04)"/><path d="M304.57,252.17a1.35,1.35,0,0,0,1.39,1.09,1.57,1.57,0,0,0,1.26-.6l.8.67a2.69,2.69,0,0,1-2.2,1,2.52,2.52,0,0,1,0-5,2.34,2.34,0,0,1,2.37,2.61c0,.1,0,.2,0,.28Zm0-.8H307a1.08,1.08,0,0,0-1.18-1.09A1.27,1.27,0,0,0,304.58,251.37Z" transform="translate(-235.52 -211.04)"/><path d="M313.72,251.53v2.72h-1.25v-2.72c0-.75-.37-1.12-1.06-1.12a1.6,1.6,0,0,0-1.08.39v3.46h-1.25v-4.88h1.25v.31a2.26,2.26,0,0,1,1.3-.4C313.06,249.28,313.72,249.95,313.72,251.53Z" transform="translate(-235.52 -211.04)"/></g></g></svg>